<?xml version="1.0" standalone="no"?>
<!DOCTYPE svg PUBLIC "-//W3C//DTD SVG 20010904//EN"
 "http://www.w3.org/TR/2001/REC-SVG-20010904/DTD/svg10.dtd">
<svg version="1.0" xmlns="http://www.w3.org/2000/svg"
 width="1000.000000pt" height="1000.000000pt" viewBox="0 0 1000.000000 1000.000000"
 preserveAspectRatio="xMidYMid meet">

<g transform="translate(0.000000,1000.000000) scale(0.100000,-0.100000)"
fill="#000000" stroke="none">
<path d="M3070 7419 c-281 -6 -299 -10 -396 -88 -78 -63 -121 -141 -134 -243
-5 -40 -10 -315 -10 -610 l0 -537 26 -20 c33 -26 58 -27 84 -1 20 20 20 34 20
593 1 520 2 575 18 602 48 85 69 106 132 138 l65 32 500 2 c275 2 503 3 507 3
4 0 15 14 24 31 13 25 13 36 4 59 -7 16 -19 32 -28 37 -19 9 -451 11 -812 2z"/>
<path d="M6077 7402 c-32 -33 -34 -61 -8 -93 l18 -23 519 0 519 -1 43 -23 c24
-13 63 -43 87 -67 78 -78 78 -78 87 -375 4 -146 7 -395 7 -555 -2 -351 -4
-320 23 -345 27 -25 70 -26 92 -1 16 17 17 63 14 612 l-3 594 -32 68 c-40 83
-118 163 -200 203 l-58 29 -540 3 -541 2 -27 -28z"/>
<path d="M3310 7090 c-97 -5 -162 -13 -195 -24 -112 -39 -191 -112 -243 -223
l-27 -58 0 -1785 0 -1785 39 -73 c40 -75 102 -139 166 -172 80 -41 150 -54
300 -54 145 -1 146 -1 213 32 51 26 81 50 127 103 105 122 95 1 98 1102 1 532
6 967 11 967 12 0 104 -135 234 -345 65 -104 190 -305 278 -445 89 -140 195
-311 237 -380 75 -125 342 -537 494 -765 96 -142 166 -220 228 -249 45 -21 46
-21 805 -17 711 3 764 4 820 22 89 28 134 58 187 123 66 83 79 115 89 230 14
151 13 1838 0 1906 -27 137 -115 246 -233 291 -62 24 -68 24 -308 19 -135 -2
-381 -5 -547 -5 l-302 0 -36 35 c-63 60 -63 62 -70 351 -7 298 -6 303 68 363
l39 31 685 7 c377 4 690 9 696 11 9 3 12 73 12 248 -1 240 -1 245 -27 299 -40
88 -111 165 -182 200 -34 17 -84 34 -112 39 -28 4 -213 4 -410 0 -197 -4 -519
-8 -714 -8 -374 -1 -433 -7 -533 -50 -73 -32 -146 -113 -204 -227 -28 -55 -56
-121 -63 -149 -10 -38 -12 -193 -11 -664 l2 -615 106 -175 c178 -296 304 -491
330 -511 44 -35 115 -40 568 -41 242 -1 448 -3 457 -6 10 -2 22 -21 28 -41 14
-50 13 -622 -1 -659 -13 -35 -54 -79 -94 -101 -26 -15 -68 -17 -315 -17 -215
0 -291 3 -308 13 -22 13 -159 216 -347 514 -78 125 -419 654 -510 793 -18 28
-69 109 -113 180 -180 292 -275 441 -557 875 -94 146 -234 362 -310 480 -76
118 -160 245 -187 282 -51 70 -126 128 -164 128 -12 0 -28 1 -36 3 -7 2 -78 0
-158 -3z m99 -206 c73 -21 143 -88 172 -163 26 -67 30 -174 10 -244 -21 -74
-88 -142 -159 -163 -68 -19 -177 -15 -238 11 -81 34 -145 120 -163 221 -41
229 155 405 378 338z m3444 -7 c82 -35 137 -118 137 -206 0 -39 -7 -59 -33
-97 -85 -123 -235 -154 -336 -68 -46 40 -61 80 -61 169 1 100 46 172 127 200
49 18 125 19 166 2z m-400 -229 c2 -29 3 -56 1 -59 -2 -3 -209 -9 -461 -12
-252 -4 -482 -10 -511 -13 -45 -6 -57 -12 -80 -42 l-27 -35 -3 -605 -3 -605
34 -36 c19 -20 44 -51 57 -70 l24 -34 468 7 468 6 0 -58 0 -59 -75 -6 c-41 -3
-254 -3 -474 0 l-399 6 -64 56 c-35 31 -81 74 -104 97 l-41 41 -6 303 c-4 167
-7 461 -7 654 l0 351 78 78 77 77 270 3 c149 1 383 3 521 5 l251 2 6 -52z
m-2719 -361 c31 -48 85 -129 121 -180 213 -296 463 -653 592 -845 123 -183
214 -313 296 -421 97 -130 109 -166 62 -197 -24 -16 -27 -16 -46 2 -11 10
-107 141 -212 291 -259 369 -423 603 -444 633 -20 29 -258 366 -343 485 -48
67 -148 218 -174 262 -4 8 6 29 26 53 31 37 34 38 50 22 9 -9 42 -57 72 -105z
m-467 -197 c18 -10 43 -36 57 -57 71 -111 22 -227 -111 -262 -50 -14 -79 -2
-130 51 -73 77 -72 179 5 261 23 24 33 27 86 27 43 0 71 -6 93 -20z m530 -257
c33 -49 163 -241 289 -428 125 -187 266 -394 311 -460 45 -66 103 -150 128
-186 24 -37 92 -134 149 -215 187 -265 174 -247 496 -729 63 -93 137 -201 165
-240 l51 -70 502 4 502 3 0 -50 c0 -28 -5 -54 -10 -57 -6 -4 -246 -8 -533 -9
l-523 -3 -57 86 c-32 47 -66 97 -77 111 -10 14 -79 117 -154 230 -134 203
-251 374 -459 671 -207 295 -331 477 -599 879 l-270 406 -62 -66 c-34 -36 -83
-91 -110 -122 l-48 -58 2 -340 1 -340 -49 0 c-49 0 -49 0 -56 38 -3 20 -6 183
-6 362 l0 326 46 44 c25 25 82 90 126 145 44 55 94 112 111 128 52 45 67 38
134 -60z m-565 -565 c1 -244 0 -472 -3 -508 -6 -97 -5 -269 5 -627 l8 -323
-60 0 -60 0 -4 343 c-2 188 -2 615 0 950 l4 607 54 0 54 0 2 -442z m3039 103
c37 -37 38 -79 4 -120 -45 -53 -83 -50 -125 9 -19 26 -20 35 -11 62 16 44 50
78 79 78 13 0 37 -13 53 -29z m-236 -67 c33 -33 15 -49 -60 -52 -106 -5 -175
6 -175 27 0 34 21 41 121 41 77 0 101 -3 114 -16z m833 -23 c46 -24 107 -87
121 -124 16 -41 13 -132 -4 -175 -38 -90 -135 -155 -231 -156 -92 0 -155 44
-200 139 -57 119 -2 268 116 319 51 22 152 20 198 -3z m-738 -390 c16 -31 12
-69 -10 -91 -11 -11 -24 -20 -30 -20 -42 0 -69 98 -32 119 27 16 60 13 72 -8z
m-2613 -170 c48 -22 83 -79 83 -133 0 -48 -39 -119 -78 -141 -66 -38 -162 -12
-194 53 -22 44 -23 128 -2 173 31 66 108 85 191 48z m3423 -456 l0 -455 -49 0
-49 0 -4 73 c-2 39 -5 242 -7 449 l-3 377 49 4 c26 2 51 4 56 5 4 1 7 -203 7
-453z m-267 305 c7 -121 7 -126 -14 -143 -30 -24 -49 -18 -73 22 -17 29 -18
38 -7 65 6 17 14 60 17 96 8 88 9 92 41 88 l28 -3 8 -125z m-1578 -136 c42
-45 26 -97 -37 -130 -29 -15 -32 -15 -57 3 -34 26 -71 81 -71 106 0 30 30 46
88 47 45 0 57 -4 77 -26z m1577 -327 c3 -144 4 -265 1 -269 -2 -5 -22 -8 -45
-8 l-40 0 4 258 c3 141 8 265 12 274 9 20 37 28 51 16 6 -5 13 -118 17 -271z
m-3187 -25 l0 -277 -45 4 c-25 1 -48 5 -52 8 -5 2 -8 127 -8 278 l0 274 43 3
c23 2 46 0 52 -5 5 -4 9 -122 10 -285z m1848 -54 c30 -16 46 -39 47 -66 1 -87
-106 -104 -140 -23 -11 26 -10 35 4 56 10 15 27 30 39 35 29 12 25 12 50 -2z
m-366 -260 c31 -29 29 -58 -5 -91 -35 -34 -55 -34 -82 0 -28 36 -22 62 19 90
41 28 39 28 68 1z m-1559 -132 c84 -44 139 -121 161 -227 14 -67 9 -94 -32
-171 -20 -39 -44 -67 -73 -86 -192 -128 -449 17 -431 243 9 120 94 229 200
256 46 12 139 4 175 -15z m3437 -25 c47 -22 118 -89 140 -131 21 -41 29 -137
16 -186 -14 -53 -79 -126 -134 -153 -51 -25 -150 -28 -200 -7 -40 16 -123 105
-143 151 -29 70 -13 161 44 248 56 85 184 121 277 78z m-473 -375 c4 -6 8 -29
8 -51 l0 -40 -440 -1 -440 -1 0 41 c0 50 8 63 40 68 14 2 205 2 425 -1 282 -2
402 -7 407 -15z"/>
<path d="M3281 6778 c-140 -24 -199 -199 -103 -302 83 -89 234 -70 297 38 44
74 27 152 -48 224 -40 39 -85 51 -146 40z m82 -118 c48 -57 44 -94 -16 -130
-43 -27 -58 -25 -92 10 -40 41 -38 84 3 122 42 36 74 36 105 -2z"/>
<path d="M6699 6741 c-54 -54 -27 -153 46 -167 69 -13 125 32 125 100 0 48 -8
65 -41 81 -47 25 -96 19 -130 -14z"/>
<path d="M3136 5988 c-21 -30 -20 -50 5 -82 40 -51 109 -23 109 46 0 53 -84
80 -114 36z"/>
<path d="M6686 5157 c-59 -56 -60 -115 -1 -174 29 -29 39 -33 85 -33 46 0 56
4 86 34 30 30 34 40 34 86 0 28 -5 60 -10 71 -16 28 -63 49 -114 49 -37 0 -51
-6 -80 -33z"/>
<path d="M3407 4642 c-25 -28 -21 -67 9 -91 33 -26 39 -26 64 -1 28 28 25 64
-6 89 -33 26 -46 26 -67 3z"/>
<path d="M3205 3508 c-43 -38 -75 -96 -75 -138 0 -86 91 -160 195 -160 39 0
51 6 90 41 50 46 61 82 50 156 -5 38 -16 57 -50 90 -41 42 -44 43 -108 43 -60
0 -70 -3 -102 -32z m140 -83 c46 -45 22 -105 -41 -105 -55 0 -85 70 -47 112
23 25 59 23 88 -7z"/>
<path d="M6681 3494 c-83 -70 -85 -173 -5 -243 43 -38 92 -48 131 -27 38 19
91 79 99 112 16 61 -28 154 -83 175 -48 18 -109 11 -142 -17z m109 -84 c23
-23 24 -33 10 -61 -13 -23 -37 -24 -62 -2 -18 16 -25 63 -11 76 13 13 43 7 63
-13z"/>
<path d="M6767 5952 c-36 -39 -7 -102 45 -102 25 0 58 36 58 63 0 50 -70 76
-103 39z"/>
<path d="M6038 5944 c-22 -12 -28 -22 -28 -49 0 -39 20 -55 68 -55 57 0 85 73
40 104 -28 20 -45 20 -80 0z"/>
<path d="M2557 5678 c-28 -22 -32 -63 -8 -87 41 -41 111 -15 111 41 0 44 -66
73 -103 46z"/>
<path d="M7381 5664 c-12 -15 -21 -30 -21 -34 0 -4 9 -19 21 -34 25 -32 61
-34 89 -4 25 28 26 52 0 78 -28 28 -64 25 -89 -6z"/>
<path d="M7398 5029 c-38 -22 -9 -93 35 -87 12 2 28 16 37 31 14 27 14 29 -9
48 -26 21 -38 23 -63 8z"/>
<path d="M2567 5023 c-14 -14 -6 -53 13 -63 40 -22 80 26 48 58 -13 13 -50 16
-61 5z"/>
<path d="M2546 4378 c-9 -12 -16 -30 -16 -39 0 -21 46 -59 71 -59 22 0 59 38
59 60 0 52 -85 80 -114 38z"/>
<path d="M7380 4380 c-11 -11 -20 -28 -20 -38 0 -24 41 -62 66 -62 33 0 64 29
64 59 0 56 -70 81 -110 41z"/>
<path d="M6010 4263 c-46 -17 -68 -81 -38 -111 19 -19 76 -14 98 8 49 49 3
126 -60 103z"/>
<path d="M7390 4019 c-13 -6 -27 -12 -30 -15 -3 -3 -10 -247 -15 -542 -10
-532 -11 -537 -33 -580 -33 -62 -100 -125 -147 -139 -28 -9 -191 -13 -549 -14
-476 -2 -510 -3 -527 -20 -42 -42 -28 -110 24 -127 12 -4 261 -5 552 -2 526 5
530 5 580 28 65 30 157 127 198 211 l32 66 5 560 c4 480 3 562 -9 573 -17 14
-46 15 -81 1z"/>
<path d="M2547 4007 c-16 -11 -17 -52 -15 -577 l3 -565 34 -63 c41 -75 119
-150 199 -189 l57 -28 520 -3 c286 -1 530 0 542 3 25 6 44 51 33 80 -21 55 -4
53 -550 58 -559 4 -542 2 -618 72 -23 20 -51 57 -64 83 l-23 47 -3 535 c-2
361 -6 538 -14 547 -13 17 -79 17 -101 0z"/>
<path d="M4935 2695 c-29 -28 -31 -51 -10 -82 21 -30 51 -34 80 -11 34 27 34
70 -1 97 -34 27 -40 26 -69 -4z"/>
</g>
</svg>
